REM DIRINDEX 1\2,1\3,1\4,1\5
REM DIRNAME cjc006,folder01,folder02,folder03,folder04
TITLE ""
FILE "No00150.mp3" MP3
  TRACK 01 AUDIO
    TITLE "3:cjc006_00211"
    INDEX 01 00:00:00
  TRACK 02 AUDIO
    TITLE "0:"
    INDEX 01 00:02:02
  TRACK 03 AUDIO
    TITLE "5:cjc006_00212"
    INDEX 01 00:03:12
  TRACK 04 AUDIO
    TITLE "0:"
    INDEX 01 00:03:70
  TRACK 05 AUDIO
    TITLE "4:cjc006_00213"
    INDEX 01 00:04:56
  TRACK 06 AUDIO
    TITLE "0:"
    INDEX 01 00:06:73
